<?xml version="1.0" encoding="UTF-8" standalone="no"?>
<svg
   version="1.1"
   width="256"
   height="256"
   viewBox="0 0 256 256"
   xml:space="preserve"
   id="svg10"
   sodipodi:docname="bookmark-7799.svg"
   inkscape:version="1.1.1 (3bf5ae0d25, 2021-09-20)"
   inkscape:export-filename="/home/viper/Documents/330_bookmarker/img/icons/bookmarker-96.png"
   inkscape:export-xdpi="36"
   inkscape:export-ydpi="36"
   xmlns:inkscape="http://www.inkscape.org/namespaces/inkscape"
   xmlns:sodipodi="http://sodipodi.sourceforge.net/DTD/sodipodi-0.dtd"
   xmlns="http://www.w3.org/2000/svg"
   xmlns:svg="http://www.w3.org/2000/svg"><sodipodi:namedview
   id="namedview12"
   pagecolor="#ffffff"
   bordercolor="#666666"
   borderopacity="1.0"
   inkscape:pageshadow="2"
   inkscape:pageopacity="0.0"
   inkscape:pagecheckerboard="0"
   showgrid="false"
   inkscape:zoom="2.2483786"
   inkscape:cx="128.09231"
   inkscape:cy="127.86992"
   inkscape:window-width="1920"
   inkscape:window-height="997"
   inkscape:window-x="0"
   inkscape:window-y="28"
   inkscape:window-maximized="1"
   inkscape:current-layer="svg10" />

<defs
   id="defs2">

	
	
</defs>
<path
   style="fill:#f07fe5;fill-opacity:1;stroke:none;stroke-width:1px;stroke-linecap:butt;stroke-linejoin:miter;stroke-opacity:1"
   d="M 36.320838,35.28338 36.94282,24.319462 41.408475,9.7490354 52.120062,7.6597551 80.595698,7.1364179 124.92707,7.261351 l 80.64401,-0.379016 7.48951,4.538518 8.02619,7.790142 -0.13243,221.269445 -2.51255,5.81594 -4.64109,3.61596 c -12.97904,-7.12533 -12.19345,-6.20729 -20.86841,-12.44972 l -49.46712,-34.18863 -13.84683,-7.77454 -9.90598,2.7325 -74.508252,49.84141 -8.283084,-4.1754 0.143424,-36.19096 z"
   id="path2115"
   sodipodi:nodetypes="cccccccccccccccccccc" /><path
   d="m 44.065203,254.30378 c -2.14403,0 -4.29649,-0.51142 -6.27754,-1.5455 -4.48757,-2.34635 -7.27228,-6.94632 -7.27228,-12.00994 V 22.492833 c -0.0028,-11.62778 9.45846,-21.0862396 21.08343,-21.0862396 H 204.11437 c 11.62497,0 21.08343,9.4584596 21.08343,21.0862396 V 240.75115 c 0,5.06081 -2.78471,9.66359 -7.27228,12.00713 -4.49038,2.34916 -9.85186,2.00634 -14.00785,-0.87953 v -0.003 l -68.51904,-47.65198 c -4.51286,-3.13315 -10.57403,-3.13315 -15.08127,0 l -68.521847,47.64917 c -2.31825,1.61294 -5.01866,2.43065 -7.73031,2.43065 z M 210.33571,242.6479 c 0.99474,0.68564 1.92204,0.3934 2.3885,0.14893 0.46084,-0.24166 1.2364,-0.82895 1.2364,-2.04568 V 22.492833 c 0,-5.42892 -4.41732,-9.84624 -9.84343,-9.84624 H 51.598813 c -5.42892,0 -9.84624,4.41732 -9.84624,9.84624 V 240.75115 c 0,1.21673 0.77556,1.80402 1.23921,2.04568 0.46646,0.24728 1.38814,0.54233 2.38569,-0.14893 l 68.519037,-47.64917 c 8.35132,-5.80827 19.57446,-5.80827 27.91735,0 z"
   style="fill:#58257b;fill-rule:nonzero;stroke:none;stroke-width:2.81;stroke-linecap:butt;stroke-linejoin:miter;stroke-miterlimit:10;stroke-dasharray:none;fill-opacity:1"
   stroke-linecap="round"
   id="path4" /><path
   style="fill:#ffff6f;stroke:none;stroke-width:1px;stroke-linecap:butt;stroke-linejoin:miter;stroke-opacity:1;fill-opacity:1"
   d="m 109.65151,77.48454 18.67133,-29.521476 18.56187,29.786721 33.22179,8.372646 -22.55695,27.552829 2.46258,34.73896 -31.26824,-14.33833 -32.821917,14.07617 2.598725,-34.15769 -23.968589,-27.961243 z"
   id="path6153"
   sodipodi:nodetypes="ccccccccccc" /><path
   d="m 98.180183,154.55721 c -2.14122,0 -4.26839,-0.66878 -6.08646,-1.98948 -3.21745,-2.33792 -4.79948,-6.22415 -4.12789,-10.1441 l 4.74609,-27.65883 -20.09712,-19.588507 c -2.84653,-2.77347 -3.85532,-6.84797 -2.62735,-10.63023 1.23078,-3.78507 4.43699,-6.48829 8.3738,-7.06153 l 27.771227,-4.03516 12.4202,-25.16636 c 1.76187,-3.56589 5.32495,-5.78017 9.3011,-5.78017 3.97615,0 7.54204,2.21428 9.3011,5.78017 0,0 0,0 0.003,0 l 12.41739,25.16636 27.77123,4.03797 c 3.93681,0.57324 7.14583,3.27927 8.37661,7.06153 1.23078,3.78226 0.22199,7.85395 -2.62735,10.63023 l -20.09431,19.588507 4.74328,27.65883 c 0.67159,3.91995 -0.90763,7.80337 -4.12789,10.14129 -3.21745,2.33792 -7.40716,2.63578 -10.92247,0.78961 l -24.83759,-13.06088 -24.8404,13.06088 c -1.53145,0.80366 -3.186537,1.19987 -4.836007,1.19987 z M 81.722013,88.353613 100.88621,107.03449 c 2.44751,2.38569 3.56027,5.8167 2.98422,9.18308 l -4.524097,26.37185 23.685487,-12.45392 c 3.02356,-1.58484 6.6316,-1.58484 9.65235,0 l 23.6883,12.45392 -4.52129,-26.37466 c -0.57886,-3.36076 0.5339,-6.79739 2.98984,-9.18308 l 19.15858,-18.675257 -26.48425,-3.8497 c -3.37481,-0.48894 -6.29159,-2.61049 -7.80618,-5.67058 l -11.85258,-24.00302 -11.84415,23.9974 c -1.50897,3.06009 -4.42856,5.18164 -7.80899,5.67339 z m 68.058197,-14.4996 h 0.0281 z m -22.70199,-20.5973 c 0,0 0,0.0028 0.003,0.0028 z"
   style="fill:#58257b;fill-rule:nonzero;stroke:none;stroke-width:2.81;stroke-linecap:butt;stroke-linejoin:miter;stroke-miterlimit:10;stroke-dasharray:none;fill-opacity:1"
   stroke-linecap="round"
   id="path6" />
</svg>
